<?xml version="1.0" standalone="no"?>
<!DOCTYPE svg PUBLIC "-//W3C//DTD SVG 20010904//EN"
 "http://www.w3.org/TR/2001/REC-SVG-20010904/DTD/svg10.dtd">
<svg version="1.0" xmlns="http://www.w3.org/2000/svg"
 width="240.000000pt" height="39.000000pt" viewBox="0 0 240.000000 39.000000"
 preserveAspectRatio="xMidYMid meet">

<g transform="translate(0.000000,39.000000) scale(0.100000,-0.100000)"
fill="#000000" stroke="none">
<path d="M270 363 c0 -4 -30 -7 -67 -5 -59 3 -66 2 -50 -10 15 -12 12 -13 -28
-10 -31 3 -54 -1 -71 -13 -15 -9 -23 -11 -19 -4 5 8 4 10 -4 5 -6 -4 -11 -19
-12 -34 0 -15 0 -43 -1 -62 -1 -19 0 -50 0 -68 2 -28 4 -31 16 -20 10 9 11 17
4 26 -8 9 -7 11 6 6 11 -4 15 -13 11 -25 -5 -15 -3 -17 11 -12 12 4 15 3 10
-5 -4 -7 -2 -12 3 -12 6 0 11 4 11 9 0 5 7 12 16 15 14 5 15 4 4 -9 -16 -20
-31 -97 -17 -88 6 4 8 0 4 -10 -3 -10 -3 -17 2 -17 8 0 24 38 22 52 -1 5 4 7
11 5 6 -1 17 8 23 20 7 13 14 20 18 17 8 -9 3 19 -7 35 -6 9 -5 12 2 7 6 -3
24 7 40 23 22 22 26 33 18 42 -8 9 -8 10 1 5 14 -8 41 4 43 19 2 14 84 101
101 107 9 3 8 6 -4 11 -9 3 -17 2 -17 -4 0 -6 -4 -7 -10 -4 -6 4 -7 -1 -3 -11
5 -13 3 -15 -7 -9 -9 5 -11 4 -6 -3 5 -8 1 -10 -9 -5 -13 4 -14 8 -4 14 16 9
12 14 -18 23 -13 4 -23 4 -23 -1z m-31 -39 c10 -9 -35 -3 -49 6 -11 8 -7 9 15
4 17 -4 32 -8 34 -10z m-101 -1 c-10 -2 -18 -9 -18 -14 0 -6 -5 -7 -11 -3 -14
8 8 24 31 23 11 -1 10 -3 -2 -6z m162 -16 c0 -2 -13 -18 -28 -35 l-28 -32 0
30 c0 17 3 30 8 30 4 0 8 -5 8 -12 0 -8 6 -6 17 5 17 17 23 20 23 14z m-120
-102 c-6 -8 -8 -20 -4 -27 5 -10 4 -10 -6 -1 -11 10 -11 15 0 28 7 8 15 15 17
15 3 0 0 -7 -7 -15z m-15 -75 c-3 -5 -16 -10 -28 -9 -20 1 -20 2 3 9 14 4 26
8 28 9 2 1 0 -3 -3 -9z m-15 -30 c0 -5 -5 -10 -11 -10 -5 0 -7 5 -4 10 3 6 8
10 11 10 2 0 4 -4 4 -10z"/>
<path d="M550 300 c0 -5 5 -10 10 -10 6 0 10 -40 10 -100 0 -60 -4 -100 -10
-100 -5 0 -10 -4 -10 -10 0 -5 16 -10 35 -10 19 0 35 5 35 10 0 6 -4 10 -9 10
-12 0 -24 91 -19 145 3 36 5 31 27 -55 23 -92 35 -120 46 -108 3 3 16 48 29
99 l24 94 1 -87 c1 -53 -3 -88 -9 -88 -5 0 -10 -4 -10 -10 0 -5 18 -10 40 -10
22 0 40 5 40 10 0 6 -4 10 -10 10 -6 0 -10 40 -10 100 0 60 4 100 10 100 6 0
10 5 10 10 0 6 -16 10 -35 10 -36 0 -41 -8 -61 -108 -9 -46 -21 -48 -29 -4 -3
20 -11 54 -16 75 -9 35 -12 37 -49 37 -22 0 -40 -4 -40 -10z"/>
<path d="M850 268 c-33 -125 -42 -155 -50 -170 -14 -26 -13 -28 20 -28 28 0
42 14 20 22 -6 2 -6 15 -2 33 11 41 52 43 63 3 4 -16 3 -30 -2 -34 -27 -16 1
-24 85 -24 79 0 97 3 119 21 54 41 60 147 12 195 -20 20 -34 24 -80 24 -30 0
-55 -4 -55 -10 0 -5 5 -10 10 -10 6 0 10 -40 10 -101 0 -98 0 -100 -22 -97
-23 3 -23 2 -69 181 -14 54 -44 51 -59 -5z m225 8 c26 -19 33 -117 11 -151 -9
-14 -23 -25 -31 -25 -12 0 -15 18 -15 95 0 52 4 95 8 95 5 0 16 -6 27 -14z
m-193 -51 c3 -28 1 -35 -13 -35 -13 0 -16 6 -12 23 13 58 19 61 25 12z"/>
<path d="M1170 300 c0 -5 5 -10 10 -10 6 0 10 -40 10 -100 0 -60 -4 -100 -10
-100 -5 0 -10 -4 -10 -10 0 -5 18 -10 40 -10 22 0 40 5 40 10 0 6 -5 10 -11
10 -6 0 -9 19 -7 48 3 43 5 47 28 47 23 0 25 -4 28 -47 2 -29 -1 -48 -7 -48
-6 0 -11 -4 -11 -10 0 -5 18 -10 40 -10 22 0 40 5 40 10 0 6 -4 10 -10 10 -16
0 -13 197 3 202 31 12 37 -4 37 -91 0 -79 2 -90 23 -109 29 -27 78 -29 100 -4
13 14 17 39 17 107 0 72 3 90 18 101 15 12 13 13 -20 14 -21 0 -38 -4 -38 -10
0 -5 5 -10 10 -10 6 0 10 -37 10 -90 0 -78 -2 -91 -19 -100 -25 -13 -27 -13
-45 6 -12 12 -16 36 -16 100 0 49 4 84 10 84 6 0 10 5 10 10 0 6 -35 10 -85
10 -50 0 -85 -4 -85 -10 0 -5 5 -10 10 -10 6 0 10 -18 10 -40 0 -38 -2 -40
-30 -40 -28 0 -30 2 -30 40 0 22 5 40 10 40 6 0 10 5 10 10 0 6 -18 10 -40 10
-22 0 -40 -4 -40 -10z"/>
</g>
</svg>
